<svg width="18" height="18" viewBox="0 0 18 18" fill="none" xmlns="http://www.w3.org/2000/svg">
<path fill-rule="evenodd" clip-rule="evenodd" d="M9.00002 0.666672C4.40002 0.666672 0.666687 4.40001 0.666687 9.00001C0.666687 13.6 4.40002 17.3333 9.00002 17.3333C13.6 17.3333 17.3334 13.6 17.3334 9.00001C17.3334 4.40001 13.6 0.666672 9.00002 0.666672ZM9.83335 8.16667V4.83334H8.16669V8.16667H4.83335V9.83334H8.16669V13.1667H9.83335V9.83334H13.1667V8.16667H9.83335ZM2.33335 9C2.33335 12.675 5.32502 15.6667 9.00002 15.6667C12.675 15.6667 15.6667 12.675 15.6667 9C15.6667 5.32501 12.675 2.33334 9.00002 2.33334C5.32502 2.33334 2.33335 5.32501 2.33335 9Z" fill="black"/>
</svg>
