<svg width="13" height="18" viewBox="0 0 13 18" fill="none" xmlns="http://www.w3.org/2000/svg">
<path fill-rule="evenodd" clip-rule="evenodd" d="M6.5 0V2.4375C10.0913 2.4375 13 5.34625 13 8.9375C13 10.2131 12.6263 11.3994 11.9925 12.3988L10.8063 11.2125C11.1719 10.5381 11.375 9.75813 11.375 8.9375C11.375 6.24813 9.18937 4.0625 6.5 4.0625V6.5L3.25 3.25L6.5 0ZM1.625 8.93749C1.625 11.6269 3.81063 13.8125 6.5 13.8125V11.375L9.75 14.625L6.5 17.875V15.4375C2.90875 15.4375 0 12.5287 0 8.93749C0 7.66187 0.37375 6.47562 1.0075 5.47624L2.19375 6.66249C1.82812 7.33687 1.625 8.11687 1.625 8.93749Z" fill="black"/>
</svg>
