<svg width="57" height="74" viewBox="0 0 57 74" fill="none" xmlns="http://www.w3.org/2000/svg">
<rect x="1" y="1" width="46.5725" height="63.9018" rx="10" fill="white"/>
<path d="M47.5846 44.8648V11.8308C47.5846 5.84917 42.745 1 36.7632 1C29.7027 1 20.1804 1 11.2989 1C2.63224 1 0.829932 8.22054 1.01211 11.8308M47.5846 50.2802V54.071C47.5846 60.0526 42.7354 64.9018 36.7538 64.9018H11.8429C5.86122 64.9018 1.01211 60.0526 1.01211 54.071C1.01211 54.071 1.01211 31.578 1.01211 21.037C1.01211 20.4955 1.01211 17.7878 1.01211 17.2462" stroke="#D8D8D8" stroke-width="2" stroke-linecap="round"/>
<path d="M15.6337 46.4894C18.3255 46.4894 20.5076 44.3073 20.5076 41.6155C20.5076 38.9238 18.3255 36.7417 15.6337 36.7417C12.9419 36.7417 10.7598 38.9238 10.7598 41.6155C10.7598 44.3073 12.9419 46.4894 15.6337 46.4894Z" stroke="#40E1C4" stroke-width="2"/>
<rect x="28.006" y="32.3263" width="10.997" height="10.997" rx="1" stroke="#18C8FF" stroke-width="2"/>
<path d="M20.832 16.4139L26.2787 25.8478C26.6636 26.5145 26.1825 27.3478 25.4127 27.3478H14.5193C13.7495 27.3478 13.2684 26.5145 13.6533 25.8478L19.1 16.4139C19.4849 15.7472 20.4471 15.7472 20.832 16.4139Z" stroke="#FF8753" stroke-width="2"/>
<rect x="9" y="9" width="46.5725" height="63.9018" rx="10" fill="white"/>
<path d="M55.5846 52.8648V19.8308C55.5846 13.8492 50.745 9 44.7632 9C37.7027 9 28.1804 9 19.2989 9C10.6322 9 8.82993 16.2205 9.01211 19.8308M55.5846 58.2802V62.071C55.5846 68.0526 50.7354 72.9018 44.7538 72.9018H19.8429C13.8612 72.9018 9.01211 68.0526 9.01211 62.071C9.01211 62.071 9.01211 39.578 9.01211 29.037C9.01211 28.4955 9.01211 25.7878 9.01211 25.2462" stroke="#D8D8D8" stroke-width="2" stroke-linecap="round"/>
<path d="M23.6337 54.4894C26.3255 54.4894 28.5076 52.3073 28.5076 49.6155C28.5076 46.9238 26.3255 44.7417 23.6337 44.7417C20.9419 44.7417 18.7598 46.9238 18.7598 49.6155C18.7598 52.3073 20.9419 54.4894 23.6337 54.4894Z" stroke="#D8D8D8" stroke-width="2"/>
<rect x="36.006" y="40.3263" width="10.997" height="10.997" rx="1" stroke="#D8D8D8" stroke-width="2"/>
<path d="M28.8321 23.4139L34.2787 32.8478C34.6636 33.5145 34.1825 34.3478 33.4127 34.3478H22.5194C21.7496 34.3478 21.2684 33.5145 21.6533 32.8478L27.1 23.4139C27.4849 22.7472 28.4472 22.7472 28.8321 23.4139Z" stroke="#D8D8D8" stroke-width="2"/>
</svg>
