<svg viewBox="0 0 20 14" fill="none" xmlns="http://www.w3.org/2000/svg">
<path fill-rule="evenodd" clip-rule="evenodd" d="M0 6.81818C1.57273 2.82727 5.45455 0 10 0C14.5455 0 18.4273 2.82727 20 6.81818C18.4273 10.8091 14.5455 13.6364 10 13.6364C5.45455 13.6364 1.57273 10.8091 0 6.81818ZM18.0182 6.81818C16.5182 3.75455 13.4455 1.81818 10 1.81818C6.55455 1.81818 3.48182 3.75455 1.98182 6.81818C3.48182 9.88182 6.55455 11.8182 10 11.8182C13.4455 11.8182 16.5182 9.88182 18.0182 6.81818ZM10 4.54546C11.2546 4.54546 12.2727 5.56364 12.2727 6.81819C12.2727 8.07273 11.2546 9.09091 10 9.09091C8.74547 9.09091 7.72729 8.07273 7.72729 6.81819C7.72729 5.56364 8.74547 4.54546 10 4.54546ZM5.9091 6.81818C5.9091 4.56364 7.74547 2.72728 10 2.72728C12.2546 2.72728 14.0909 4.56364 14.0909 6.81818C14.0909 9.07273 12.2546 10.9091 10 10.9091C7.74547 10.9091 5.9091 9.07273 5.9091 6.81818Z" fill="black"/>
</svg>
